<svg xmlns="http://www.w3.org/2000/svg" viewBox="0 0 64 64">
  <defs>
    <radialGradient id="g" cx="35%" cy="30%" r="75%">
      <stop offset="0" stop-color="#fff2a6"/>
      <stop offset=".33" stop-color="#ffb62d"/>
      <stop offset=".67" stop-color="#1598dd"/>
      <stop offset="1" stop-color="#073b5d"/>
    </radialGradient>
  </defs>
  <rect width="64" height="64" rx="15" fill="#07111c"/>
  <path d="M32 6c-11.6 0-21 9.4-21 21 0 15.7 21 31 21 31s21-15.3 21-31C53 15.4 43.6 6 32 6Z" fill="url(#g)" stroke="#fff" stroke-opacity=".88" stroke-width="2"/>
  <circle cx="32" cy="27" r="9" fill="none" stroke="#fff" stroke-width="2.5"/>
  <path d="M32 13v4M32 37v4M18 27h4M42 27h4M22.1 17.1l2.8 2.8M39.1 34.1l2.8 2.8M22.1 36.9l2.8-2.8M39.1 19.9l2.8-2.8" stroke="#fff" stroke-linecap="round" stroke-width="2.2"/>
</svg>
